HIERARCHY
ROOT Hips
{
	OFFSET 0.00000 0.00000 0.00000
	CHANNELS 6 Xposition Yposition Zposition Zrotation Yrotation Xrotation 
	JOINT LHipJoint
	{
		OFFSET 0 0 0
		CHANNELS 3 Zrotation Yrotation Xrotation
		JOINT LeftUpLeg
		{
			OFFSET 1.66553 -1.82942 0.76350
			CHANNELS 3 Zrotation Yrotation Xrotation
			JOINT LeftLeg
			{
				OFFSET 2.41740 -6.64177 0.00000
				CHANNELS 3 Zrotation Yrotation Xrotation
				JOINT LeftFoot
				{
					OFFSET 2.71614 -7.46254 0.00000
					CHANNELS 3 Zrotation Yrotation Xrotation
					JOINT LeftToeBase
					{
						OFFSET 0.08005 -0.21993 1.82495
						CHANNELS 3 Zrotation Yrotation Xrotation
						End Site
						{
							OFFSET 0.00000 -0.00000 0.93441
						}
					}
				}
			}
		}
	}
	JOINT RHipJoint
	{
		OFFSET 0 0 0
		CHANNELS 3 Zrotation Yrotation Xrotation
		JOINT RightUpLeg
		{
			OFFSET -1.63725 -1.82942 0.76350
			CHANNELS 3 Zrotation Yrotation Xrotation
			JOINT RightLeg
			{
				OFFSET -2.40538 -6.60872 0.00000
				CHANNELS 3 Zrotation Yrotation Xrotation
				JOINT RightFoot
				{
					OFFSET -2.73312 -7.50919 0.00000
					CHANNELS 3 Zrotation Yrotation Xrotation
					JOINT RightToeBase
					{
						OFFSET -0.15567 -0.42769 1.93504
						CHANNELS 3 Zrotation Yrotation Xrotation
						End Site
						{
							OFFSET -0.00000 -0.00000 1.00100
						}
					}
				}
			}
		}
	}
	JOINT LowerBack
	{
		OFFSET 0 0 0
		CHANNELS 3 Zrotation Yrotation Xrotation
		JOINT Spine
		{
			OFFSET 0.00326 2.30118 -0.13017
			CHANNELS 3 Zrotation Yrotation Xrotation
			JOINT Spine1
			{
				OFFSET 0.02887 2.30677 0.00834
				CHANNELS 3 Zrotation Yrotation Xrotation
				JOINT Neck
				{
					OFFSET 0 0 0
					CHANNELS 3 Zrotation Yrotation Xrotation
					JOINT Neck1
					{
						OFFSET 0.12946 1.68326 0.00713
						CHANNELS 3 Zrotation Yrotation Xrotation
						JOINT Head
						{
							OFFSET -0.24364 1.67243 -0.16079
							CHANNELS 3 Zrotation Yrotation Xrotation
							End Site
							{
								OFFSET -0.09229 1.70819 -0.06383
							}
						}
					}
				}
				JOINT LeftShoulder
				{
					OFFSET 0 0 0
					CHANNELS 3 Zrotation Yrotation Xrotation
					JOINT LeftArm
					{
						OFFSET 3.28104 0.69567 -0.00556
						CHANNELS 3 Zrotation Yrotation Xrotation
						JOINT LeftForeArm
						{
							OFFSET 5.70706 -0.00000 -0.00000
							CHANNELS 3 Zrotation Yrotation Xrotation
							JOINT LeftHand
							{
								OFFSET 3.33243 -0.00000 0.00000
								CHANNELS 3 Zrotation Yrotation Xrotation
								JOINT LeftFingerBase
								{
									OFFSET 0 0 0
									CHANNELS 3 Zrotation Yrotation Xrotation
									JOINT LeftHandIndex1
									{
										OFFSET 0.79269 -0.00000 0.00000
										CHANNELS 3 Zrotation Yrotation Xrotation
										End Site
										{
											OFFSET 0.63909 -0.00000 0.00000
										}
									}
								}
								JOINT LThumb
								{
									OFFSET 0 0 0
									CHANNELS 3 Zrotation Yrotation Xrotation
									End Site
									{
										OFFSET 0.64884 -0.00000 0.64884
									}
								}
							}
						}
					}
				}
				JOINT RightShoulder
				{
					OFFSET 0 0 0
					CHANNELS 3 Zrotation Yrotation Xrotation
					JOINT RightArm
					{
						OFFSET -3.40955 0.64424 0.14010
						CHANNELS 3 Zrotation Yrotation Xrotation
						JOINT RightForeArm
						{
							OFFSET -5.88176 -0.00000 -0.00000
							CHANNELS 3 Zrotation Yrotation Xrotation
							JOINT RightHand
							{
								OFFSET -3.28156 -0.00000 0.00000
								CHANNELS 3 Zrotation Yrotation Xrotation
								JOINT RightFingerBase
								{
									OFFSET 0 0 0
									CHANNELS 3 Zrotation Yrotation Xrotation
									JOINT RightHandIndex1
									{
										OFFSET -0.86313 -0.00000 0.00000
										CHANNELS 3 Zrotation Yrotation Xrotation
										End Site
										{
											OFFSET -0.69587 -0.00000 0.00000
										}
									}
								}
								JOINT RThumb
								{
									OFFSET 0 0 0
									CHANNELS 3 Zrotation Yrotation Xrotation
									End Site
									{
										OFFSET -0.70650 -0.00000 0.70650
									}
								}
							}
						}
					}
				}
			}
		}
	}
}
MOTION
Frames: 10
Frame Time: .0083333
12.6679 17.9748 -22.5978 0.3650 -22.3036 10.3080 0.0000 0.0000 0.0000 -19.0963 -7.6352 -11.8229 1.1734 6.8757 19.3478 0.6350 4.3148 -17.2383 2.1232 -9.1181 -26.1654 0.0000 0.0000 0.0000 21.2236 0.8070 -16.8505 -1.8099 -8.4584 24.1152 -0.3300 13.9205 -13.3222 -2.2878 -9.4414 27.1862 1.3040 -3.0904 8.9533 0.5328 -3.9413 -3.7105 0.4911 -1.9723 -9.0217 14.6464 6.9921 11.4288 -23.6485 6.7852 -29.3007 -12.1324 4.3088 -9.3428 0.0000 -0.0000 0.0000 -72.4101 13.2731 31.3722 30.7380 -41.5176 -11.8958 -0.0000 0.0000 -22.1005 17.4130 26.6482 8.0070 -7.1250 0.0000 -0.0000 -13.9735 57.1701 -4.2219 0.0000 -0.0000 0.0000 79.6557 -7.7888 9.9756 -33.4194 43.6500 -13.7107 0.0000 0.0000 11.0627 -8.6028 16.6410 -2.4807 7.1250 -0.0000 -0.0000 12.7551 -13.4544 9.6854
12.6643 17.9682 -22.5876 0.4603 -22.1908 10.0389 0.0000 0.0000 0.0000 -19.2274 -7.4949 -11.4938 1.1556 6.8251 19.1982 0.6218 4.3813 -17.1321 2.3360 -9.5334 -27.4787 0.0000 0.0000 0.0000 21.1501 0.7828 -16.5798 -1.8300 -8.5026 24.2514 -0.3895 13.7248 -13.8042 -2.2832 -9.4327 27.1585 1.4255 -3.1744 9.0370 0.4002 -4.0477 -3.5995 0.3017 -2.0346 -8.9699 14.9499 6.8939 11.0241 -23.7245 6.6986 -28.8171 -12.1213 4.2366 -9.0904 -0.0000 -0.0000 0.0000 -73.3718 13.7400 30.7688 31.1938 -41.8949 -12.1990 -0.0000 0.0000 -22.0402 18.7101 24.5900 8.0219 -7.1250 0.0000 -0.0000 -11.5756 55.3925 -2.9822 -0.0000 -0.0000 0.0000 80.2623 -8.0862 9.8122 -34.4004 44.3792 -14.3924 0.0000 0.0000 10.0019 -8.4560 15.9163 -2.3346 7.1250 -0.0000 -0.0000 12.8710 -14.1767 9.5760
12.6596 17.9649 -22.5794 0.6090 -22.1935 9.8075 0.0000 0.0000 0.0000 -19.4065 -7.1918 -11.3063 1.1445 6.7934 19.1047 0.6264 4.1909 -17.0610 2.3565 -9.5722 -27.6021 0.0000 0.0000 0.0000 21.0487 0.9221 -16.3531 -1.8461 -8.5378 24.3600 -0.5161 13.0526 -14.7070 -2.0839 -9.0387 25.9166 1.3916 -3.1994 9.0442 0.2917 -4.0939 -3.4826 0.2093 -2.0584 -8.8533 15.6990 6.7303 10.1376 -24.2963 6.4991 -27.7710 -12.2877 4.1058 -8.5223 0.0000 -0.0000 0.0000 -74.0827 14.0134 29.9010 31.5841 -42.2131 -12.4605 -0.0000 0.0000 -21.2455 18.4599 26.8811 8.5830 -7.1250 0.0000 -0.0000 -13.0019 57.6248 -4.0646 0.0000 -0.0000 0.0000 80.5022 -8.2569 9.3430 -35.3117 45.0334 -15.0335 0.0000 0.0000 9.2573 -8.1039 15.4895 -2.1777 7.1250 -0.0000 -0.0000 13.1180 -14.6183 9.6432
12.6570 17.9545 -22.5770 0.7815 -22.3105 9.5668 0.0000 0.0000 0.0000 -19.6070 -6.7615 -11.1872 1.1365 6.7703 19.0367 0.6493 3.7860 -17.0646 2.2717 -9.4104 -27.0877 0.0000 0.0000 0.0000 20.8852 1.2686 -16.0597 -1.8585 -8.5648 24.4432 -0.5983 12.6229 -15.3014 -2.0174 -8.9023 25.4901 1.2458 -3.2279 9.1900 0.2349 -4.1527 -3.4547 0.2481 -2.0797 -8.9024 15.1848 6.7187 10.9312 -23.8776 6.4665 -28.6172 -12.1948 4.1150 -9.0362 0.0000 0.0000 0.0000 -74.5350 14.3349 29.0440 31.8209 -42.4039 -12.6199 -0.0000 0.0000 -20.3138 20.7642 27.4484 9.9134 -7.1250 0.0000 -0.0000 -10.8443 58.7030 -3.6603 0.0000 0.0000 0.0000 80.3268 -8.3822 8.6963 -35.9980 45.5117 -15.5210 0.0000 0.0000 9.0148 -7.4150 15.6060 -2.0052 7.1250 -0.0000 -0.0000 13.5710 -14.5462 10.0175
12.6566 17.9413 -22.5745 0.9057 -22.4360 9.2984 0.0000 0.0000 0.0000 -19.7545 -6.4893 -10.9790 1.1303 6.7527 18.9846 0.6665 3.4941 -17.0825 2.1857 -9.2426 -26.5572 0.0000 0.0000 0.0000 20.7391 1.6800 -15.6246 -1.8638 -8.5764 24.4789 -0.6240 12.5141 -15.4960 -2.0933 -9.0577 25.9760 1.1818 -3.2361 9.4061 0.1750 -4.1736 -3.4402 0.2367 -2.0867 -9.0131 15.1205 6.6842 11.4136 -23.8533 6.4137 -29.0833 -12.2753 4.1030 -9.3155 0.0000 0.0000 0.0000 -74.6422 14.7038 28.8043 31.7738 -42.3661 -12.5881 -0.0000 0.0000 -21.0944 24.1174 25.1819 10.7849 -7.1250 0.0000 -0.0000 -6.1241 57.1302 -1.8246 0.0000 0.0000 0.0000 79.8509 -8.4450 7.8434 -36.5430 45.8830 -15.9111 0.0000 0.0000 9.0156 -7.0283 15.4423 -1.8802 7.1250 -0.0000 -0.0000 13.8336 -14.7290 10.1677
12.6582 17.9378 -22.5697 1.0272 -22.5478 9.0189 0.0000 0.0000 0.0000 -19.9033 -6.3174 -10.7383 1.1271 6.7433 18.9571 0.6813 3.2554 -17.1084 2.0981 -9.0675 -26.0067 0.0000 0.0000 0.0000 20.6180 1.7320 -15.3092 -1.8628 -8.5742 24.4723 -0.6400 12.4878 -15.6307 -2.0385 -8.9459 25.6263 1.1909 -3.2021 9.6189 0.0957 -4.1304 -3.4439 0.1534 -2.0675 -9.1479 15.1222 6.6446 11.4812 -23.8738 6.3798 -28.9182 -12.2684 4.0946 -9.2790 -0.0000 -0.0000 0.0000 -74.4400 15.1219 28.5664 31.6757 -42.2871 -12.5220 -0.0000 0.0000 -21.7427 23.0559 23.8728 9.7735 -7.1250 0.0000 -0.0000 -6.7400 55.5404 -1.7494 -0.0000 -0.0000 0.0000 79.0820 -8.4905 6.8037 -37.0097 46.1950 -16.2470 0.0000 0.0000 9.0304 -7.4190 14.9902 -1.9290 7.1250 -0.0000 -0.0000 13.5925 -15.1483 9.8537
12.6637 17.9445 -22.5622 1.0409 -22.5880 8.8807 0.0000 0.0000 0.0000 -19.9363 -6.2100 -10.6042 1.1254 6.7384 18.9427 0.7027 2.9040 -17.1485 1.9148 -8.6863 -24.8189 0.0000 0.0000 0.0000 20.6117 1.4842 -15.2325 -1.8566 -8.5608 24.4308 -0.6501 12.5665 -15.7479 -2.0410 -8.9511 25.6424 1.3707 -3.2186 9.7281 0.0536 -4.1309 -3.5045 0.0180 -2.0789 -9.2951 15.3739 6.6068 11.3837 -24.1998 6.3597 -28.3614 -12.3689 4.1011 -9.0364 0.0000 -0.0000 0.0000 -73.9577 15.4865 27.9380 31.5322 -42.1710 -12.4256 -0.0000 0.0000 -21.6729 20.4147 25.5940 9.1340 -7.1250 0.0000 -0.0000 -10.2714 56.7552 -2.9811 0.0000 -0.0000 0.0000 78.0345 -8.4762 5.8251 -37.3087 46.3920 -16.4632 0.0000 0.0000 9.0209 -8.1996 14.5730 -2.0764 7.1250 -0.0000 -0.0000 13.0870 -15.5121 9.3611
12.6689 17.9493 -22.5551 0.9968 -22.6284 8.8808 0.0000 0.0000 0.0000 -19.9044 -6.0779 -10.6104 1.1254 6.7385 18.9428 0.7109 2.6865 -17.1219 1.8034 -8.4440 -24.0709 0.0000 0.0000 0.0000 20.6604 1.3689 -15.2079 -1.8469 -8.5396 24.3653 -0.6697 12.5173 -15.9057 -2.1103 -9.0920 26.0837 1.6424 -3.2123 9.5894 -0.0300 -4.0959 -3.4861 -0.2371 -2.0813 -9.2203 15.4184 6.5813 11.5477 -24.2821 6.3489 -28.2604 -12.4125 4.1095 -9.0305 -0.0000 -0.0000 0.0000 -73.0158 15.4938 27.2806 31.2257 -41.9211 -12.2203 -0.0000 0.0000 -21.9621 22.8397 25.5850 10.3086 -7.1250 0.0000 -0.0000 -7.6779 57.2682 -2.3165 -0.0000 -0.0000 0.0000 76.9061 -8.1588 4.6690 -37.2959 46.3837 -16.4540 0.0000 0.0000 9.1340 -8.8589 14.3400 -2.2107 7.1250 -0.0000 -0.0000 12.6526 -15.7024 8.9807
12.6740 17.9515 -22.5513 0.9503 -22.7380 9.0181 0.0000 0.0000 0.0000 -19.8580 -5.9151 -10.8467 1.1353 6.7670 19.0270 0.7047 2.6037 -17.0102 1.9028 -8.6607 -24.7396 0.0000 0.0000 0.0000 20.6980 1.5208 -15.2306 -1.8305 -8.5038 24.2550 -0.6787 12.3243 -15.9232 -2.1126 -9.0968 26.0985 1.9867 -3.1584 9.1585 -0.1769 -3.9998 -3.3499 -0.6314 -2.0600 -8.8541 15.1397 6.6080 11.9233 -23.9784 6.3740 -28.8539 -12.3455 4.1223 -9.3421 -0.0000 -0.0000 0.0000 -71.7279 15.1720 26.3972 30.8307 -41.5949 -11.9573 -0.0000 0.0000 -21.6511 24.1947 30.0994 12.6983 -7.1250 0.0000 -0.0000 -8.5114 62.2177 -3.5770 -0.0000 -0.0000 0.0000 75.7372 -7.4157 3.1648 -36.9204 46.1358 -16.1826 0.0000 0.0000 9.6670 -9.4093 14.3145 -2.3462 7.1250 -0.0000 -0.0000 12.2826 -15.6943 8.7072
12.6806 17.9534 -22.5494 0.9243 -22.9480 9.1916 0.0000 0.0000 0.0000 -19.8393 -5.8929 -11.1193 1.1560 6.8262 19.2013 0.7033 2.6041 -16.9950 1.9566 -8.7750 -25.0940 0.0000 0.0000 0.0000 20.6819 1.8073 -15.2533 -1.8078 -8.4538 24.1011 -0.6680 12.1586 -15.7737 -2.0340 -8.9364 25.5967 2.2314 -3.1036 8.8080 -0.2602 -3.9109 -3.3209 -0.8914 -2.0336 -8.6392 15.1064 6.7003 12.1963 -23.9268 6.5000 -29.3003 -12.4017 4.1831 -9.5289 0.0000 -0.0000 0.0000 -70.4228 14.9894 25.3990 30.3148 -41.1617 -11.6163 -0.0000 0.0000 -20.4818 24.1716 27.8866 11.8556 -7.1250 0.0000 -0.0000 -7.3007 59.9467 -2.6715 0.0000 -0.0000 0.0000 74.2777 -6.7373 1.7549 -36.3858 45.7767 -15.7983 0.0000 0.0000 10.2026 -10.1374 14.2552 -2.5210 7.1250 -0.0000 -0.0000 11.7929 -15.7074 8.3408
